<?xml version="1.0" encoding="utf-8"?>
<svg viewBox="0 0 500 500" xmlns="http://www.w3.org/2000/svg" xmlns:bx="https://boxy-svg.com">
    <path d="M 615 452 m -179.494 0 a 179.494 179.494 0 1 0 358.988 0 a 179.494 179.494 0 1 0 -358.988 0 Z M 615 452 m -125.646 0 a 125.646 125.646 0 0 1 251.292 0 a 125.646 125.646 0 0 1 -251.292 0 Z" style="fill: rgb(216, 216, 216); stroke: rgb(0, 0, 0);" transform="matrix(-0.9966529607772827, -0.0817440077662468, 0.0817440077662468, -0.9966529607772827, 831.34765625, 723.6873168945314)" bx:shape="ring 615 452 125.646 125.646 179.494 179.494 1@4415da1c"/>
    <path d="M 718 369 m -17.191 0 a 17.191 17.191 0 1 0 34.382 0 a 17.191 17.191 0 1 0 -34.382 0 Z M 718 369 m -12.034 0 a 12.034 12.034 0 0 1 24.068 0 a 12.034 12.034 0 0 1 -24.068 0 Z" style="fill: rgb(216, 216, 216); stroke: rgb(0, 0, 0);" transform="matrix(-0.9191450476646423, 0.3939190208911896, -0.3939190208911896, -0.9191450476646423, 1177.762939453125, 232.40270996093753)" bx:shape="ring 718 369 12.034 12.034 17.191 17.191 1@c39e7ac6"/>
    <path d="M 297 354 m -17.558 0 a 17.558 17.558 0 1 0 35.116 0 a 17.558 17.558 0 1 0 -35.116 0 Z M 297 354 m -12.291 0 a 12.291 12.291 0 0 1 24.582 0 a 12.291 12.291 0 0 1 -24.582 0 Z" style="fill: rgb(216, 216, 216); stroke: rgb(0, 0, 0);" transform="matrix(-0.7071070075035095, 0.7071070075035095, -0.7071070075035095, -0.7071070075035095, 602.2008056640625, 213.91212463378906)" bx:shape="ring 297 354 12.291 12.291 17.558 17.558 1@c3b14af6"/>
    <path d="M 479 653 m -15.68 0 a 15.68 15.68 0 1 0 31.36 0 a 15.68 15.68 0 1 0 -31.36 0 Z M 479 653 m -10.976 0 a 10.976 10.976 0 0 1 21.952 0 a 10.976 10.976 0 0 1 -21.952 0 Z" style="fill: rgb(216, 216, 216); stroke: rgb(0, 0, 0);" transform="matrix(-0.8637790083885193, 0.5038710236549377, -0.5038710236549377, -0.8637790083885193, 1000.360595703125, 670.0365600585939)" bx:shape="ring 479 653 10.976 10.976 15.68 15.68 1@b29c2730"/>
</svg>